<?xml version="1.0" standalone="no"?>
<!DOCTYPE svg PUBLIC "-//W3C//DTD SVG 20010904//EN"
 "http://www.w3.org/TR/2001/REC-SVG-20010904/DTD/svg10.dtd">
<svg version="1.0" xmlns="http://www.w3.org/2000/svg"
 width="512.000000pt" height="512.000000pt" viewBox="0 0 512.000000 512.000000"
 preserveAspectRatio="xMidYMid meet">
<metadata>
Created by potrace 1.14, written by Peter Selinger 2001-2017
</metadata>
<g transform="translate(0.000000,512.000000) scale(0.100000,-0.100000)"
fill="#000000" stroke="none">
<path d="M2310 4625 c-560 -74 -1059 -358 -1395 -796 -244 -318 -383 -667
-425 -1069 -10 -95 -7 -372 5 -465 57 -438 277 -886 587 -1195 318 -318 698
-514 1143 -592 164 -29 519 -31 651 -4 12 2 38 7 59 10 236 38 547 163 765
308 504 336 830 849 921 1451 22 143 19 443 -5 607 -41 269 -164 589 -318 820
-246 370 -603 656 -1003 805 -111 41 -330 100 -415 110 -30 4 -64 9 -75 12
-48 11 -407 9 -495 -2z m485 -158 c11 -2 42 -8 68 -11 248 -36 544 -154 764
-302 382 -258 652 -631 782 -1079 50 -173 68 -327 65 -545 -1 -102 -5 -201 -9
-220 -29 -158 -51 -251 -82 -345 -160 -489 -513 -896 -978 -1127 -75 -38 -185
-83 -225 -93 l-25 -6 0 338 c-1 244 -4 352 -14 388 -7 28 -14 57 -16 65 -2 8
-11 32 -19 53 -19 43 -25 38 81 61 492 107 745 455 744 1022 0 198 -41 336
-146 495 -45 66 -46 70 -35 105 14 42 18 225 8 300 -8 56 -42 176 -60 211 -13
27 -63 43 -129 43 -98 0 -306 -78 -448 -168 -52 -34 -55 -34 -105 -23 -74 17
-162 31 -236 38 -132 13 -409 7 -493 -12 -12 -2 -36 -6 -52 -8 -17 -3 -56 -10
-87 -17 l-56 -13 -73 45 c-201 120 -403 179 -515 149 -40 -11 -41 -12 -67 -94
-48 -147 -61 -305 -34 -432 l12 -60 -44 -65 c-72 -107 -120 -228 -140 -355 -8
-53 -7 -266 1 -335 52 -414 254 -672 623 -796 44 -14 107 -32 140 -38 33 -7
60 -17 60 -22 0 -5 -9 -39 -20 -77 -19 -65 -22 -68 -60 -79 -58 -18 -192 -14
-238 6 -54 24 -109 77 -170 165 -30 42 -72 92 -94 112 -173 157 -434 164 -444
14 -4 -55 34 -106 132 -174 62 -43 108 -107 165 -226 106 -223 289 -327 567
-322 l107 2 0 -156 0 -157 -102 38 c-598 220 -1050 726 -1201 1345 -14 55 -28
122 -32 148 -3 27 -9 59 -11 70 -12 51 -11 387 1 472 19 136 23 153 45 240
129 491 438 906 867 1166 176 106 412 201 588 235 11 2 43 8 70 14 28 5 77 12
110 16 33 3 61 8 63 9 5 5 374 -3 397 -8z m-1065 -843 c82 -30 186 -84 269
-139 l64 -42 91 23 c272 69 635 63 911 -14 26 -8 38 -3 85 28 129 87 282 156
381 174 42 7 43 6 64 -92 18 -87 11 -221 -15 -305 l-21 -68 51 -62 c65 -79
125 -201 145 -297 16 -73 21 -245 10 -323 -3 -20 -7 -53 -10 -72 -46 -325
-251 -547 -580 -629 -111 -28 -313 -58 -392 -60 -13 0 -23 -3 -23 -7 0 -4 28
-31 62 -60 107 -93 126 -121 154 -214 15 -52 18 -107 19 -417 l1 -357 -46 -10
c-206 -48 -487 -50 -745 -7 -11 2 -26 4 -32 5 -10 1 -13 64 -13 277 l0 276
-37 -6 c-21 -3 -56 -10 -78 -16 -22 -6 -87 -13 -145 -15 -85 -4 -119 -1 -178
15 -135 38 -190 87 -263 237 -28 56 -69 125 -91 155 l-42 53 38 -35 c21 -19
60 -67 86 -106 78 -114 182 -194 285 -219 102 -25 267 -6 379 44 41 18 43 21
55 82 20 106 52 159 147 243 46 42 79 76 72 77 -7 0 -20 2 -28 3 -8 2 -44 6
-80 10 -298 30 -471 86 -618 199 -148 113 -241 296 -269 532 -9 71 -9 261 0
316 18 113 77 236 158 330 l48 57 -21 58 c-18 48 -22 82 -22 179 -1 67 5 146
12 178 l14 58 41 -6 c23 -4 71 -18 107 -31z"/>
</g>
</svg>
